<?xml version="1.0" standalone="no"?><!DOCTYPE svg PUBLIC "-//W3C//DTD SVG 1.1//EN" "http://www.w3.org/Graphics/SVG/1.1/DTD/svg11.dtd"><svg t="1558152953828" class="icon" style="" viewBox="0 0 1163 1024" version="1.1" xmlns="http://www.w3.org/2000/svg" p-id="1005" xmlns:xlink="http://www.w3.org/1999/xlink" width="145.375" height="128"><defs><style type="text/css"></style></defs><path d="M430.545455 410.181818h698.181818c6.4 0 11.636364-5.236364 11.636363-11.636363v-81.454546c0-6.4-5.236364-11.636364-11.636363-11.636364H430.545455c-6.4 0-11.636364 5.236364-11.636364 11.636364v81.454546c0 6.4 5.236364 11.636364 11.636364 11.636363z m-11.636364 296.727273c0 6.4 5.236364 11.636364 11.636364 11.636364h698.181818c6.4 0 11.636364-5.236364 11.636363-11.636364v-81.454546c0-6.4-5.236364-11.636364-11.636363-11.636363H430.545455c-6.4 0-11.636364 5.236364-11.636364 11.636363v81.454546zM1152 0H11.636364C5.236364 0 0 5.236364 0 11.636364v81.454545c0 6.4 5.236364 11.636364 11.636364 11.636364h1140.363636c6.4 0 11.636364-5.236364 11.636364-11.636364V11.636364c0-6.4-5.236364-11.636364-11.636364-11.636364z m0 919.272727H11.636364c-6.4 0-11.636364 5.236364-11.636364 11.636364v81.454545c0 6.4 5.236364 11.636364 11.636364 11.636364h1140.363636c6.4 0 11.636364-5.236364 11.636364-11.636364v-81.454545c0-6.4-5.236364-11.636364-11.636364-11.636364zM44.218182 701.236364L271.563636 522.181818a12.858182 12.858182 0 0 0 0-20.218182L44.218182 322.763636c-8.436364-6.690909-20.945455-0.727273-20.945455 10.036364v358.254545a12.945455 12.945455 0 0 0 20.945455 10.181819z" p-id="1006"></path></svg>
